<svg width="880" height="200" viewBox="0 0 880 200" fill="none" xmlns="http://www.w3.org/2000/svg">
<g opacity="0.6" clip-path="url(#clip0_3240_4009)">
<path fill-rule="evenodd" clip-rule="evenodd" d="M75 140C68.3696 140 62.0107 137.366 57.3223 132.678C52.6339 127.989 50 121.63 50 115V0H0V115C0 156.42 33.58 190 75 190H130V140H75ZM225 50C219.091 50 213.239 51.164 207.779 53.4254C202.32 55.6869 197.359 59.0016 193.18 63.1802C189.002 67.3588 185.687 72.3196 183.425 77.7792C181.164 83.2389 180 89.0905 180 95C180 100.909 181.164 106.761 183.425 112.221C185.687 117.68 189.002 122.641 193.18 126.82C197.359 130.998 202.32 134.313 207.779 136.575C213.239 138.836 219.091 140 225 140C236.935 140 248.381 135.259 256.82 126.82C265.259 118.381 270 106.935 270 95C270 83.0653 265.259 71.6193 256.82 63.1802C248.381 54.7411 236.935 50 225 50ZM130 95C130 42.535 172.535 0 225 0C277.465 0 320 42.535 320 95C320 147.465 277.465 190 225 190C172.535 190 130 147.465 130 95ZM765 50C753.065 50 741.619 54.7411 733.18 63.1802C724.741 71.6193 720 83.0653 720 95C720 106.935 724.741 118.381 733.18 126.82C741.619 135.259 753.065 140 765 140C776.935 140 788.381 135.259 796.82 126.82C805.259 118.381 810 106.935 810 95C810 83.0653 805.259 71.6193 796.82 63.1802C788.381 54.7411 776.935 50 765 50ZM670 95C670 42.535 712.535 0 765 0C817.465 0 860 42.535 860 95C860 147.465 817.465 190 765 190C712.535 190 670 147.465 670 95ZM425 0C372.535 0 330 42.535 330 95C330 147.465 372.535 190 425 190H565C574.845 190 584.34 188.5 593.27 185.72L620 200L648.84 145.98C656.166 132.228 659.999 116.886 660 101.305V95C660 42.535 617.465 0 565 0H425ZM610 95C610 83.0653 605.259 71.6193 596.82 63.1802C588.381 54.7411 576.935 50 565 50H425C419.091 50 413.239 51.164 407.779 53.4254C402.32 55.6869 397.359 59.0016 393.18 63.1802C389.002 67.3588 385.687 72.3196 383.425 77.7792C381.164 83.2389 380 89.0905 380 95C380 100.909 381.164 106.761 383.425 112.221C385.687 117.68 389.002 122.641 393.18 126.82C397.359 130.998 402.32 134.313 407.779 136.575C413.239 138.836 419.091 140 425 140H565C576.874 140 588.268 135.307 596.697 126.944C605.126 118.58 609.908 107.224 610 95.35V95Z" fill="url(#paint0_linear_3240_4009)"/>
<path d="M880 12.5C880 15.8152 878.683 18.9946 876.339 21.3388C873.995 23.683 870.815 25 867.5 25C864.185 25 861.005 23.683 858.661 21.3388C856.317 18.9946 855 15.8152 855 12.5C855 9.18479 856.317 6.00537 858.661 3.66117C861.005 1.31696 864.185 0 867.5 0C870.815 0 873.995 1.31696 876.339 3.66117C878.683 6.00537 880 9.18479 880 12.5Z" fill="url(#paint1_linear_3240_4009)"/>
</g>
<defs>
<linearGradient id="paint0_linear_3240_4009" x1="0" y1="100" x2="860" y2="100" gradientUnits="userSpaceOnUse">
<stop stop-color="#0B1E3D" stop-opacity="0.06"/>
<stop offset="1" stop-color="#1D50A3" stop-opacity="0.06"/>
</linearGradient>
<linearGradient id="paint1_linear_3240_4009" x1="855" y1="12.5" x2="880" y2="12.5" gradientUnits="userSpaceOnUse">
<stop stop-color="#0B1E3D" stop-opacity="0.06"/>
<stop offset="1" stop-color="#1D50A3" stop-opacity="0.06"/>
</linearGradient>
<clipPath id="clip0_3240_4009">
<rect width="880" height="200" fill="white"/>
</clipPath>
</defs>
</svg>
