<svg width="150" height="30" viewBox="0 0 150 30" fill="none" xmlns="http://www.w3.org/2000/svg">
<g clip-path="url(#clip0_3212_2816)">
<mask id="mask0_3212_2816" style="mask-type:luminance" maskUnits="userSpaceOnUse" x="-35" y="-1344" width="746" height="1385">
<path d="M-34.6225 40.4542H710.026V-1343.78H-34.6225V40.4542Z" fill="white"/>
</mask>
<g mask="url(#mask0_3212_2816)">
<path d="M103.574 17.5879C105.144 12.5188 106.675 7.61463 106.716 7.48204C106.806 7.20325 106.964 7.07916 107.212 7.04346C107.323 7.02986 107.58 7.02307 107.84 7.02307C108.087 7.02307 108.337 7.02986 108.425 7.04346C108.644 7.08596 108.84 7.21855 108.929 7.53813C109.313 8.95584 110.62 13.2379 111.96 17.5879H103.574ZM114.117 5.19738C112.577 0.362885 113.155 0.898348 109.756 0.738558C109.445 0.72156 108.763 0.704561 107.748 0.701162C106.73 0.701162 106.464 0.711365 105.688 0.731762C102.487 0.808258 102.989 0.509075 101.894 3.64028C101.895 3.64028 96.3938 20.6851 94.0059 27.7703L93.8982 28.0694C93.4502 29.2679 93.7794 29.3104 94.4902 29.3104L99.4775 29.3053C99.7942 29.3053 100.004 29.0418 100.086 28.8038C100.086 28.8038 100.772 26.5854 101.714 23.5868H113.821C114.726 26.5089 115.402 28.6797 115.438 28.7868C115.543 29.1183 115.775 29.3206 116.046 29.3206L121.185 29.3087C121.949 29.3087 122.113 29.4412 121.821 28.5046C120.906 25.557 114.973 7.90021 114.117 5.19738ZM36.6873 0.721731H31.6399C31.2419 0.721731 31.1293 0.986916 31.1293 1.45269V28.4385C31.1293 29.1813 31.2532 29.3105 31.8076 29.3105H36.5872C37.1241 29.3105 37.2367 29.1388 37.2367 28.4419V1.46798C37.2367 0.941015 37.1153 0.721731 36.6873 0.721731ZM25.3851 0.715103H21.2564C20.7069 0.715103 20.6068 0.888491 20.6068 1.59225L20.6043 22.9599C20.6043 22.9599 12.3017 5.3966 11.2254 3.12895C9.97761 0.509415 9.53582 0.681105 5.92392 0.681105C2.30576 0.681105 1.15311 0.715103 1.15311 0.715103C0.60119 0.718504 0.499817 0.888489 0.499817 1.58544L0.511079 28.4386C0.511079 29.1679 0.629976 29.3141 1.16438 29.3141L5.30192 29.3107C5.86135 29.3107 5.96648 29.139 5.96648 28.4421L5.96147 7.37528C5.96147 7.37528 12.7835 21.9281 15.0826 26.817C16.2452 29.292 16.4518 29.3073 19.7971 29.3107L25.3864 29.3073C25.9308 29.3073 26.0472 29.1679 26.0472 28.4319V1.58885C26.0472 0.881693 25.9496 0.715103 25.3851 0.715103ZM148.834 0.715103H144.709C144.161 0.715103 144.057 0.888491 144.057 1.59225L144.054 22.9599C144.054 22.9599 135.764 5.3966 134.681 3.12895C133.434 0.509415 132.995 0.681105 129.373 0.681105C125.766 0.681105 124.605 0.715103 124.605 0.715103C124.056 0.718504 123.952 0.888489 123.952 1.58544L123.964 28.4386C123.965 29.1679 124.083 29.3141 124.617 29.3141L128.756 29.3107C129.315 29.3107 129.417 29.139 129.417 28.4421L129.413 7.37528C129.413 7.37528 136.235 21.9281 138.535 26.817C139.698 29.292 139.899 29.3073 143.255 29.3107L148.837 29.3073C149.382 29.3073 149.5 29.1679 149.5 28.4319V1.58885C149.5 0.881693 149.401 0.715103 148.834 0.715103ZM58.3683 11.6814C56.3784 11.4163 50.9405 10.7159 49.1584 10.4966C48.5063 10.4099 48.3248 9.89486 48.271 9.3169C48.246 9.05852 48.246 8.84603 48.246 8.67264C48.246 8.41085 48.2548 8.27147 48.271 8.07598C48.3298 7.26513 48.6377 6.93365 49.2748 6.93365C49.684 6.93365 64.014 6.93705 64.014 6.93705C64.5496 6.94045 64.6835 6.80106 64.6835 6.05651V1.50929C64.6835 0.820833 64.5296 0.701845 64.0152 0.698444H49.047C45.1485 0.698444 42.9495 2.63122 42.3501 6.62767C42.2174 7.52521 42.1899 8.61994 42.1899 9.39339C42.1899 10.33 42.2337 11.2922 42.3088 12.0333C42.5403 14.3248 43.5653 17.0174 48.052 17.6175C51.6189 18.0951 56.7489 18.6833 58.4722 18.8856C59.2532 18.9757 59.3921 19.7763 59.4409 20.2268C59.4609 20.4002 59.4709 20.6586 59.4709 21.0003C59.4709 21.3028 59.4709 21.6224 59.4409 22.0627C59.4008 22.6968 59.1881 22.9959 58.5773 22.9959H42.9445C42.3964 22.9959 42.2837 23.1489 42.2837 23.8765V28.4084C42.2837 29.1444 42.4139 29.2906 42.9408 29.2906H58.3758C62.1992 29.2906 64.7023 28.4118 65.3744 23.902C65.517 22.95 65.5433 21.704 65.5433 20.832C65.5433 19.484 65.4757 18.2753 65.4107 17.8232C64.7211 13.0924 62.0966 12.1795 58.3683 11.6814ZM85.4572 11.6814C83.4648 11.4163 78.0307 10.7159 76.2472 10.4966C75.5952 10.4099 75.4112 9.89486 75.3562 9.3169C75.3386 9.05852 75.3386 8.84603 75.3386 8.67264C75.3386 8.41085 75.3486 8.27147 75.3562 8.07598C75.4187 7.26513 75.7228 6.93365 76.3736 6.93365C76.7741 6.93365 91.1078 6.93705 91.1078 6.93705C91.6372 6.94045 91.7687 6.80106 91.7687 6.05651V1.50929C91.7687 0.820833 91.6172 0.701845 91.1078 0.698444H76.1359C72.2374 0.698444 70.0372 2.63122 69.4402 6.62767C69.3075 7.52521 69.2787 8.61994 69.2787 9.39339C69.2787 10.33 69.3213 11.2922 69.3964 12.0333C69.6317 14.3248 70.6529 17.0174 75.1371 17.6175C78.7027 18.0951 83.8402 18.6833 85.5623 18.8856C86.3383 18.9757 86.481 19.7763 86.531 20.2268C86.5498 20.4002 86.5585 20.6586 86.5585 21.0003C86.5585 21.3028 86.5586 21.6224 86.531 22.0627C86.4897 22.6968 86.2782 22.9959 85.67 22.9959H70.0334C69.4815 22.9959 69.3739 23.1489 69.3726 23.8765L69.3751 28.4084C69.3726 29.1444 69.5053 29.2906 70.0309 29.2906H85.4635C89.2869 29.2906 91.7862 28.4118 92.462 23.902C92.6009 22.95 92.6322 21.704 92.6322 20.832C92.6322 19.484 92.5621 18.2753 92.4945 17.8232C91.8037 13.0924 89.1842 12.1795 85.4572 11.6814Z" fill="#C90C41"/>
</g>
</g>
<defs>
<clipPath id="clip0_3212_2816">
<rect width="150" height="30" fill="white"/>
</clipPath>
</defs>
</svg>
