<svg width="163" height="29" viewBox="0 0 163 29" fill="none" xmlns="http://www.w3.org/2000/svg">
<g clip-path="url(#clip0_3212_2828)">
<path d="M63.8595 4.97498H68.0945V18.3614C68.0945 19.5924 68.6323 20.0898 69.5393 20.0898H76.7531C77.6589 20.0898 78.1978 19.5924 78.1978 18.3614V4.97498H82.4306V19.2401C82.4306 22.2677 80.458 24.5616 78.1967 24.5616H68.0934C65.842 24.5616 63.8584 22.2546 63.8584 19.2401V4.97498H63.8595Z" fill="#0B1E3D"/>
<path d="M43.7819 18.5194H47.996C48.0654 19.6345 48.5635 20.0912 49.401 20.0912H57.1438C57.8612 20.0912 58.259 19.2807 58.259 18.4005C58.259 17.2217 57.6022 16.604 56.7548 16.604H48.3145C45.5341 16.604 43.6408 14.8205 43.6408 10.9664C43.6408 8.96101 44.2392 6.83676 45.5947 5.76086C46.441 5.07791 47.4769 4.97351 48.4544 4.97351H58.3979C60.5512 4.97351 62.2836 6.97886 62.2637 9.86291V10.8982H57.9108C57.8711 10.0065 57.4722 9.43081 56.7559 9.43081H49.4121C48.6649 9.43081 48.0367 9.92816 48.0367 11.0171C48.0367 12.093 48.6748 12.499 49.4021 12.499H58.4001C61.3094 12.499 62.8148 15.0568 62.8148 18.7804C62.8148 22.346 61.5585 24.5601 58.7483 24.5601H47.9971C45.5451 24.5601 43.8116 23.2638 43.7918 19.8288L43.7819 18.5194Z" fill="#0B1E3D"/>
<path d="M144.01 4.97498H148.255V18.3614C148.255 19.5924 148.794 20.0898 149.7 20.0898H156.912C157.818 20.0898 158.357 19.5924 158.357 18.3614V4.97498H162.591V19.2401C162.591 22.2532 160.609 24.5616 158.357 24.5616H148.253C145.992 24.5616 144.008 22.2677 144.008 19.2401L144.01 4.97498Z" fill="#0B1E3D"/>
<path d="M108.288 20.6944L106.624 24.5601H101.922L110.003 4.97498H115.533L123.615 24.5601H118.911L117.247 20.6944H108.288ZM112.762 9.93108L110.092 16.4604H115.444L112.762 9.93108Z" fill="#0B1E3D"/>
<path d="M84.0473 4.97498H97.1007C99.8998 4.97498 101.973 6.25968 101.973 10.3893C101.973 12.1728 101.436 13.733 100.24 14.6117C101.554 15.5295 102.302 17.2318 102.302 19.198C102.302 21.9646 100.956 24.5601 98.6953 24.5601H84.0473V4.97498ZM88.3815 20.0898H96.4328C97.2186 20.0898 97.947 19.5272 97.947 18.3991C97.947 17.284 97.2098 16.7084 96.4328 16.7084H88.3815V20.0898ZM88.3815 12.6585H96.4328C97.1591 12.6585 97.6186 11.9901 97.6186 11.0592C97.6186 10.1283 97.1701 9.43518 96.4328 9.43518H88.3815V12.6585Z" fill="#0B1E3D"/>
<path d="M124.421 4.97498H138.609C141.44 4.97498 142.806 8.01708 142.806 11.413C142.806 13.6141 142.198 15.6731 140.663 16.7243C142.159 17.6799 142.845 19.1879 142.845 21.3919V24.563H138.609V21.3933C138.609 19.5315 137.823 18.8631 136.457 18.8631H128.787V24.563H124.422L124.421 4.97498ZM128.786 14.4014H136.727C137.752 14.4014 138.44 13.195 138.44 11.9234C138.44 10.2979 137.524 9.43228 136.338 9.43228H128.786V14.4014Z" fill="#0B1E3D"/>
<path d="M19.1607 0.0725098C23.8542 0.0725098 28.886 1.33111 32.8907 4.67481C35.4914 6.86431 37.9126 10.1819 37.9126 14.5058C37.9126 19.5547 34.6352 23.2261 31.4955 25.375C27.7597 27.9198 23.345 28.9275 19.1596 28.9275C14.4672 28.9275 9.44533 27.6834 5.43951 24.3267C2.83876 22.1372 0.407715 18.8196 0.407715 14.5058C0.407715 9.43371 3.67629 5.77536 6.82474 3.62501C10.5716 1.08171 14.9763 0.0725098 19.1607 0.0725098ZM19.121 1.60661C14.757 1.60661 10.0536 2.68106 6.26712 5.68256C3.88567 7.55741 1.53397 10.5082 1.53397 14.4275C1.53397 19.0313 4.7221 22.2532 7.57191 24.1034C11.0995 26.3697 15.2243 27.2513 19.121 27.2513C23.4938 27.2513 28.1983 26.174 31.9848 23.1725C34.3564 21.2846 36.718 18.3483 36.718 14.429C36.718 9.81506 33.5387 6.58881 30.68 4.75456C27.1514 2.48386 23.0266 1.60661 19.121 1.60661ZM2.65031 11.2419L9.83434 9.62946L11.9965 3.45391L14.1498 9.62946L21.3328 11.2419L14.1498 12.8688L11.9965 19.0574L9.83434 12.8688L2.65031 11.2419ZM18.4433 15.9471L21.6116 15.2149L22.5582 12.4222L23.5048 15.2149L26.6742 15.9471L23.5048 16.6678L22.5582 19.4619L21.6116 16.6678L18.4433 15.9471ZM25.0003 8.50136L28.1686 7.78071L29.1152 4.97641L30.0618 7.78071L33.2301 8.50136L30.0618 9.23506L29.1152 12.0292L28.1674 9.23506L25.0003 8.50136ZM21.6116 21.7181L24.7699 20.9975L25.7166 18.1917L26.6731 20.9975L29.8414 21.7181L26.6731 22.4518L25.7166 25.246L24.7699 22.4518L21.6116 21.7181ZM11.8775 22.7273L15.0458 22.0067L16.0023 19.198L16.9478 22.0067L20.1172 22.7273L16.9478 23.461L16.0023 26.2552L15.0458 23.461L11.8775 22.7273ZM27.8104 15.8326L30.9688 15.0974L31.9154 12.3047L32.8719 15.0974L36.0402 15.8326L32.8719 16.5532L31.9143 19.343L30.9677 16.5518L27.8104 15.8326Z" fill="#0B1E3D"/>
</g>
<defs>
<clipPath id="clip0_3212_2828">
<rect width="163" height="29" fill="white"/>
</clipPath>
</defs>
</svg>
