<svg width="137" height="29" viewBox="0 0 137 29" fill="none" xmlns="http://www.w3.org/2000/svg">
<g clip-path="url(#clip0_3212_2822)">
<path fill-rule="evenodd" clip-rule="evenodd" d="M0 13.8805C0 6.21391 7.74478 0 17.2984 0C26.852 0 34.5968 6.21523 34.5968 13.8805C34.5968 21.543 26.852 27.7583 17.2984 27.7583C7.74478 27.7583 0 21.543 0 13.8778V13.8805ZM21.5283 13.7565C21.5315 13.9622 21.5336 14.1705 21.5336 14.38C21.5336 20.1141 20.1957 24.9387 18.3762 26.336L18.4083 26.3228C26.1488 25.8271 32.2581 20.2143 32.2581 13.365C32.2581 11.0371 31.5517 8.85291 30.3145 6.96264L30.2995 6.92309C30.2031 10.0867 26.5619 12.7626 21.5176 13.7381L21.5283 13.7565ZM13.0696 13.7565C8.02841 12.7811 4.38935 10.1052 4.29302 6.94155L4.28125 6.97714C3.03755 8.86741 2.33328 11.0503 2.33328 13.3795C2.33328 20.2288 8.43834 25.8416 16.1831 26.3373L16.2152 26.3452C14.4011 24.9453 13.0642 20.1168 13.0642 14.38C13.0642 14.1691 13.0642 13.9582 13.0696 13.7473V13.7565ZM88.2697 13.8791C88.2697 8.01323 92.1336 3.26777 96.8858 3.26777C101.649 3.26777 105.502 8.01323 105.502 13.866C105.502 19.7187 101.649 24.472 96.8858 24.472C92.1229 24.472 88.2762 19.7266 88.2762 13.8646L88.2697 13.8791ZM54.3729 13.8791C54.3729 8.01323 58.2304 3.26777 62.9868 3.26777C67.7444 3.26777 71.6007 8.01323 71.6007 13.866C71.6007 19.7187 67.7454 24.472 62.9879 24.472C58.2304 24.472 54.3719 19.7266 54.3719 13.8646L54.3729 13.8791ZM48.3792 7.68368V24.0028H44.7508V7.68764H39.6883V3.99673H53.4418V7.68764H48.3781L48.3792 7.68368ZM115.274 7.68368V24.0028H111.645V7.68764H106.583V3.99673H120.336V7.68764H115.274V7.68368ZM119.09 23.9922L125.791 3.98882H130.307L137 24.0041H132.762L131.37 19.5091L131.367 19.5051H124.717L124.714 19.5078L123.322 24.0028H119.084L119.09 23.9922ZM14.7243 13.9951C14.7885 18.4572 15.9188 22.0136 17.307 22.0136C18.6951 22.0136 19.8265 18.4545 19.8864 13.9951H19.8918L19.8853 13.9899V13.9925C19.0505 14.0848 18.1835 14.1375 17.2995 14.1375C16.4154 14.1375 15.5527 14.0848 14.7179 13.9925V13.9833L14.7243 13.9951ZM96.889 20.586C99.5433 20.586 101.7 17.5806 101.7 13.8686C101.7 10.1566 99.5466 7.1485 96.8911 7.1485C94.2367 7.1485 92.0822 10.1566 92.0822 13.8673C92.0822 17.5766 94.2335 20.5847 96.8879 20.5847L96.889 20.586ZM62.9879 20.586C65.6423 20.586 67.7957 17.5806 67.7957 13.8686C67.7957 10.1566 65.6412 7.1485 62.9857 7.1485C60.3292 7.1485 58.1758 10.1566 58.1758 13.8673C58.1758 17.5766 60.3271 20.5847 62.9847 20.5847L62.9879 20.586ZM125.769 16.1174V16.12H130.336L128.067 8.79755H128.035L125.77 16.1187L125.769 16.1174ZM78.1028 23.9949V16.4021L71.7666 3.99409H76.005L79.9363 12.4041L83.8686 3.99409H88.1071L81.7708 16.4074V24.0001H78.0889L78.1028 23.9949ZM14.9095 10.4875C15.6769 10.5692 16.4807 10.6127 17.307 10.6127C18.1311 10.6127 18.9338 10.5731 19.7045 10.4888C19.3191 7.40686 18.3912 5.23318 17.307 5.23318C16.2206 5.23318 15.2926 7.40818 14.9095 10.4795V10.4875ZM17.307 2.001C19.1479 2.001 20.7191 5.44145 21.2992 10.2528L21.3024 10.2396C24.888 9.55418 27.4032 7.96314 27.4032 6.11636C27.4032 3.63818 22.8801 1.62927 17.3037 1.62927C11.7274 1.62927 7.2032 3.64082 7.2032 6.119C7.2032 7.96446 9.71202 9.55023 13.2997 10.2383L13.3029 10.2449C13.8809 5.43882 15.4542 1.99309 17.2952 1.99309L17.307 2.001Z" fill="#0B1E3D"/>
</g>
<defs>
<clipPath id="clip0_3212_2822">
<rect width="137" height="29" fill="white"/>
</clipPath>
</defs>
</svg>
