<svg width="145" height="26" viewBox="0 0 145 26" fill="none" xmlns="http://www.w3.org/2000/svg">
<path d="M17.8125 25.575C23.7 25.575 28.9125 23.5125 32.1375 20.325L29.25 20.3625C26.475 22.6875 22.425 24.1125 17.85 24.1125C9.3375 24.1125 2.7 19.05 2.7 12.7875C2.7 5.55 9.3375 1.4625 17.85 1.4625C18.4125 1.4625 18.825 1.65 18.525 2.175C16.7625 4.3125 11.7 11.1375 10.7625 12.6375C8.9625 15.5625 9.0375 19.1625 13.4625 19.425H32.1375C33.1125 19.425 33.375 18.975 33.675 18.525C34.95 16.8375 35.55 14.85 35.55 12.7875C35.55 7.3875 31.8 3.375 26.2125 1.3875L25.35 2.6625C30 4.35 33.0375 7.8 33.0375 12.7875C33.0375 13.65 32.925 14.475 32.6625 15.2625C32.475 15.975 32.0625 16.5375 31.3125 16.5375H16.3875C14.475 16.5375 15.1875 14.5875 15.9 13.65C16.95 11.8125 22.575 4.125 23.8875 2.7C24.3 2.175 25.2375 1.0875 23.8875 0.675C22.0125 0.2625 19.9125 0 17.8125 0C7.95 0 0 5.0625 0 12.7875C0 20.5875 7.95 25.575 17.8125 25.575ZM138.712 12.075H128.1C128.213 10.725 129.188 9.4125 130.875 9.4125H143.4V6.8625H130.312C125.1 6.8625 122.925 10.8 122.925 14.625H137.55C138.037 14.625 139.2 14.7375 139.2 15.9375C139.2 17.1375 138.188 17.25 136.425 17.25H121.2V6.8625H116.737V17.25H108.188C105.562 17.25 105.3 15.375 105.3 14.3625V6.8625H97.1625L90.525 11.2875L84.4875 6.8625H67.0125C61.8 6.8625 58.65 10.5 58.2 13.65H61.8C60.375 14.5875 59.3625 15.9375 58.8 17.25H48.6375C46.05 17.25 45.7875 15.375 45.7875 14.3625V6.8625H41.2875V13.9875C41.2875 18.8625 44.7 19.8375 46.3875 19.8375H82.2375L88.95 15.375L95.025 19.8375H102.075L92.6625 12.9L100.425 7.725V14.5875C100.425 18.975 104.738 19.8375 105.938 19.8375H138.675C140.25 19.8375 144.75 19.6125 144.75 16.0875C144.75 12.525 141.45 12.075 138.712 12.075ZM81.4875 17.25H64.65C64.7625 15.9375 66.225 14.625 67.9125 14.625H77.8875V12.075H64.275C64.3875 10.725 65.85 9.4125 67.5375 9.4125H78.9375V7.9125L86.8125 13.7625L81.4875 17.25Z" fill="#0B1E3D"/>
</svg>
